<svg xmlns="http://www.w3.org/2000/svg" viewBox="0 0 229 229"><g opacity="0.2"><linearGradient id="a" gradientUnits="userSpaceOnUse" x1="28.5" y1="114.5" x2="200.5" y2="114.5"><stop stop-color="#ffd5a4" offset="0" /><stop stop-color="#f4977c" offset="1" /></linearGradient><circle fill="none" stroke="url(#a)" cx="114.5" cy="114.5" r="78" /></g><g opacity="0.4"><radialGradient id="b" gradientUnits="userSpaceOnUse" cx="114.5" cy="114.5" r="102.3"><stop stop-color="#ffd5a4" stop-opacity="0.5" offset="0" /><stop stop-color="#f4977c" stop-opacity="0" offset="0.8" /></radialGradient><circle fill="url(#b)" cx="114.5" cy="114.5" r="102.3" /></g><g opacity="0.6"><linearGradient id="c" gradientUnits="userSpaceOnUse" gradientTransform="matrix(98 0 0 -98 49249 37948.9)" x1="-501.8" y1="386.6" x2="-500.8" y2="385.3"><stop stop-color="#ffd5a4" offset="0" /><stop stop-color="#f4977c" offset="1" /></linearGradient><circle fill="none" stroke="url(#c)" stroke-width="3" cx="114.5" cy="114.5" r="47.3" /></g><g opacity="0.9"><linearGradient id="d" gradientUnits="userSpaceOnUse" x1="103" y1="115.9" x2="125.2" y2="115.9"><stop stop-color="#ffd5a4" offset="0" /><stop stop-color="#f4977c" offset="1" /></linearGradient><path fill="url(#d)" d="M 103 99.6 v -2 h 22.2 v 2 h -10.5 v 0.2 c 1 0.3 2 0.9 2.9 1.7 c 0.9 0.8 1.6 1.9 2 3.3 h 5.7 v 2 H 120 v 0.6 a 9 9 0 0 1 -5.9 8.8 a 13 13 0 0 1 -4 0.9 v 0.2 c 0.5 0.3 1.1 0.7 1.6 1.2 c 0.6 0.5 1.2 1.4 2 2.5 l 3.2 5.3 a 19.5 19.5 0 0 0 3.7 4.5 l 2.2 1.3 c 0.8 0.3 1.7 0.6 2.6 0.7 v 1.2 h -4.5 a 8.5 8.5 0 0 1 -5 -1.4 c -0.6 -0.4 -1 -0.8 -1.4 -1.3 l -1 -1.4 l -5.1 -8.3 l -1.3 -2 l -1.2 -1.4 l -1.2 -0.9 l -1.4 -0.5 v -1.3 c 1.7 0 3.3 -0.1 4.7 -0.4 s 2.7 -0.8 3.7 -1.5 s 1.8 -1.6 2.4 -2.6 c 0.6 -1.1 0.9 -2.3 0.9 -3.7 v -0.7 h -12 v -2 h 11.4 c -0.5 -1.9 -1.4 -3.3 -2.8 -4 a 9.1 9.1 0 0 0 -4.7 -1.2 H 103 Z" /></g><g opacity="0.6"><linearGradient id="e" gradientUnits="userSpaceOnUse" y1="114.5" x2="229" y2="114.5"><stop stop-color="#ffd5a4" offset="0" /><stop stop-color="#f4977c" offset="1" /></linearGradient><circle fill="none" stroke="url(#e)" cx="114.5" cy="114.5" r="114" /></g></svg>